<svg xmlns="http://www.w3.org/2000/svg" width="31" height="31" viewBox="0 0 512 512" version="1.1">
    <path d="" stroke="none" fill="#1AAB7B" fill-rule="evenodd" />
    <path
        d="M 83.295 13.105 C 77.064 15.501, 69.955 22.870, 68.189 28.764 C 67.426 31.309, 67 40.639, 67 54.782 L 67 76.831 50.250 77.175 C 35.301 77.481, 33.056 77.754, 29.372 79.717 C 24.017 82.570, 17.667 89.832, 16.176 94.807 C 15.295 97.749, 15.002 141.042, 15.010 267.616 L 15.020 436.500 17.351 441.507 C 19.907 446.994, 25.024 452.039, 30.787 454.752 C 34.221 456.369, 41.243 456.521, 124.250 456.776 L 214 457.051 214 476.953 L 214 496.855 216.635 498.927 C 219.237 500.974, 220.052 501, 282 501 C 343.948 501, 344.763 500.974, 347.365 498.927 L 350 496.855 350 476.983 L 350 457.110 387.750 456.787 C 420.998 456.502, 425.943 456.257, 429.213 454.734 C 434.956 452.058, 440.088 447.006, 442.649 441.507 C 444.875 436.727, 444.981 435.470, 444.990 413.750 L 445 391 459.318 391 C 476.175 391, 481.618 389.731, 487.930 384.328 C 490.328 382.275, 493.326 378.348, 494.626 375.556 L 496.980 370.500 496.968 201 C 496.956 32.745, 496.941 31.467, 494.923 27 C 492.047 20.632, 486.491 15.327, 480.253 12.994 C 474.996 11.027, 472.334 11.001, 281.712 11.052 C 90.932 11.104, 88.434 11.129, 83.295 13.105 M 86.893 26.497 C 85.460 27.276, 83.435 29.171, 82.393 30.707 C 80.657 33.268, 80.475 36.012, 80.196 63.750 L 79.892 94 101.446 94 L 123 94 123.004 81.750 C 123.007 71.385, 123.306 69.010, 124.950 66.314 C 128.445 60.583, 128.776 60.529, 162.500 60.175 C 179.550 59.996, 195.975 60.127, 199 60.466 L 204.500 61.083 220.500 77.544 L 236.500 94.006 360.316 94.003 L 484.132 94 483.816 63.750 C 483.526 35.994, 483.343 33.269, 481.602 30.699 C 477.459 24.588, 491.890 24.996, 281.800 25.040 C 117.831 25.074, 89.116 25.289, 86.893 26.497 M 353.168 43.089 C 339.861 49.850, 339.794 69.263, 353.055 76.028 C 365.460 82.356, 380.047 73.710, 380.154 59.966 C 380.201 53.813, 377.655 48.549, 372.735 44.627 C 367.595 40.530, 359.464 39.891, 353.168 43.089 M 399 42.067 C 392.359 44.850, 387.714 52.026, 387.714 59.500 C 387.714 70.263, 395.615 78, 406.605 78 C 424.418 78, 431.637 54.068, 416.788 44.241 C 412.367 41.316, 403.405 40.220, 399 42.067 M 442.500 42.665 C 438.091 44.995, 436.013 47.058, 433.894 51.210 C 429.934 58.968, 432.422 69.169, 439.611 74.652 C 442.465 76.829, 444.549 77.495, 449.370 77.770 C 456.629 78.185, 460.816 76.308, 465.475 70.552 C 468.219 67.162, 468.500 66.141, 468.500 59.579 C 468.500 53.191, 468.171 51.913, 465.692 48.663 C 460.331 41.634, 449.669 38.877, 442.500 42.665 M 358.200 56.200 C 356.291 58.109, 356.805 61.750, 359.223 63.443 C 360.445 64.299, 361.795 65, 362.223 65 C 363.548 65, 367 61.077, 367 59.571 C 367 55.900, 360.854 53.546, 358.200 56.200 M 401.980 57.038 C 400.603 59.611, 401.545 62.686, 404.135 64.072 C 408.431 66.371, 413.261 59.661, 409.800 56.200 C 407.849 54.249, 403.206 54.746, 401.980 57.038 M 447.200 56.200 C 446.540 56.860, 446 58.675, 446 60.232 C 446 65.612, 454.184 65.936, 454.822 60.582 C 454.999 59.095, 454.607 57.231, 453.950 56.440 C 452.498 54.690, 448.840 54.560, 447.200 56.200 M 136 87.035 C 136 108.050, 136.077 108, 103.535 108 L 79.971 108 80.235 238.250 C 80.491 364.293, 80.561 368.590, 82.398 371.301 C 86.388 377.188, 84.057 377.006, 154.700 376.930 C 212.584 376.867, 219.076 376.704, 215.530 375.406 C 207.965 372.636, 203.152 365.392, 204.671 359.061 C 205.645 355.003, 271.978 235.821, 275.048 232.614 C 278.716 228.782, 285.006 228.550, 288.565 232.114 C 291.642 235.196, 358.509 355.651, 359.227 359.405 C 360.494 366.033, 356.061 372.627, 348.470 375.406 C 344.924 376.704, 351.416 376.867, 409.300 376.930 C 480.801 377.007, 478.182 377.231, 481.733 370.733 C 483.393 367.696, 483.516 359.618, 483.765 237.750 L 484.029 108 358.265 107.993 C 240.143 107.987, 232.348 107.881, 230 106.238 C 228.625 105.276, 220.975 97.690, 213 89.379 L 198.500 74.270 167.250 74.135 L 136 74 136 87.035 M 33.898 93.287 C 31.779 94.713, 30.025 97.014, 29.238 99.401 C 28.239 102.433, 28.031 137.566, 28.238 268.364 C 28.495 430.253, 28.538 433.564, 30.456 436.734 C 34.431 443.305, 29.764 443, 126.401 443 L 214 443 214.004 429.750 C 214.007 418.381, 214.284 416.046, 215.956 413.304 C 218.851 408.556, 222.019 406.966, 229.901 406.305 L 237 405.710 237 402.221 C 237 400.302, 236.479 396.992, 235.842 394.866 L 234.683 391 162.523 391 C 79.341 391, 82.937 391.341, 74.479 382.656 C 71.410 379.505, 68.980 375.900, 68.229 373.384 C 67.283 370.214, 67 337.274, 67 230.134 L 67 91 52.148 91 C 38.333 91, 37.059 91.160, 33.898 93.287 M 261.077 156.791 C 256.231 159.430, 254 164.140, 254 171.734 L 254 178 209.078 178 L 164.155 178 163.026 174.579 C 157.230 157.016, 134.667 151.272, 120.774 163.823 C 114.861 169.165, 112.645 174.208, 112.568 182.500 C 112.512 188.477, 112.941 190.292, 115.501 194.921 C 125.070 212.216, 149.276 213.485, 159.953 197.250 L 163.405 192 193.362 192 L 223.319 192 215.079 196.953 C 188.580 212.879, 169.243 237.316, 159.014 267.803 L 156.096 276.500 149.170 277.055 C 141.706 277.654, 138.108 279.379, 135.264 283.722 C 133.739 286.051, 133.500 288.929, 133.500 305.003 C 133.500 325.294, 133.892 326.918, 139.720 330.736 C 142.048 332.261, 144.925 332.500, 161 332.500 C 181.615 332.500, 183.138 332.102, 187.044 325.696 C 188.777 322.853, 188.993 320.583, 188.996 305.151 C 189.001 285.299, 188.298 282.660, 182.078 279.164 C 179.960 277.974, 176.601 277, 174.614 277 C 172.626 277, 171 276.577, 171 276.060 C 171 274.357, 176.198 260.600, 178.767 255.500 C 192.376 228.493, 220.350 204.953, 248.687 196.663 L 253.873 195.146 254.557 198.323 C 255.655 203.423, 257.821 206.856, 260.967 208.483 C 263.288 209.683, 267.877 210, 282.935 210 L 301.968 210 305.084 207.216 C 307.065 205.446, 308.630 202.736, 309.383 199.771 L 310.567 195.109 319.287 198.040 C 352.864 209.323, 380.105 236.498, 391.540 270.117 L 393.881 277 390.175 277 C 385.170 277, 380.052 279.925, 377.791 284.077 C 376.128 287.131, 375.958 289.512, 376.214 306.172 C 376.495 324.515, 376.544 324.892, 379 327.551 C 383.362 332.274, 386.594 333, 403.218 332.994 C 421.118 332.988, 425.015 332.158, 428.481 327.614 C 430.974 324.345, 431 324.111, 431 304.790 C 431 286.280, 430.888 285.127, 428.832 282.514 C 425.878 278.759, 421.195 277, 414.150 277 L 408.236 277 405.662 268.750 C 396.130 238.188, 375.068 212.285, 345 194.145 L 341.500 192.034 371.500 192.048 L 401.500 192.063 404.173 196.469 C 411.915 209.232, 428.686 212.455, 441.700 203.680 C 448.655 198.991, 451.500 192.848, 451.500 182.521 C 451.500 175.556, 451.135 173.879, 448.728 169.784 C 437.855 151.288, 409.107 153.443, 401.514 173.324 L 399.728 178 354.864 178 L 310 178 310 172.468 C 310 165.971, 308.303 161.465, 304.551 158 C 301.892 155.544, 301.515 155.495, 283.172 155.214 C 266.512 154.958, 264.131 155.128, 261.077 156.791 M 268 183 L 268 197 282 197 L 296 197 296 183 L 296 169 282 169 L 268 169 268 183 M 134.035 171.306 C 126.008 174.071, 123.575 184.816, 129.561 191.064 C 134.489 196.208, 141.962 196.191, 147.128 191.026 C 149.516 188.638, 150 187.321, 150 183.212 C 150 177.418, 147.483 173.518, 142.364 171.379 C 138.494 169.762, 138.519 169.762, 134.035 171.306 M 422.333 171.122 C 412.388 173.924, 410.906 188.797, 420.099 193.551 C 426.099 196.654, 434.181 194.204, 436.536 188.568 C 438.518 183.824, 438.371 180.121, 436.050 176.314 C 433.077 171.439, 428.013 169.522, 422.333 171.122 M 247 309.842 C 231.875 337.070, 219.369 359.867, 219.209 360.503 C 219.050 361.139, 220.625 362.189, 222.709 362.836 C 237.125 367.313, 251 386.327, 251 401.605 L 251 406 282 406 L 313 406 313 401.468 C 313 386.525, 325.016 369.838, 340.233 363.648 L 345.515 361.500 317.263 310.500 L 289.012 259.500 289.006 275.151 L 289 290.802 292.361 292.785 C 296.812 295.412, 300.548 300.494, 301.979 305.870 C 305.233 318.099, 295.017 330.933, 282 330.968 C 275.827 330.985, 267.867 327.140, 265.230 322.867 C 258.109 311.332, 261.444 298.476, 273.368 291.500 C 274.881 290.614, 275.044 288.776, 274.788 275.419 L 274.500 260.338 247 309.842 M 147 305 L 147 319 161 319 L 175 319 175 305 L 175 291 161 291 L 147 291 147 305 M 389.009 299.750 C 389.013 304.563, 389.301 310.863, 389.648 313.750 L 390.279 319 404.139 319 L 418 319 418 309.640 C 418 304.491, 417.714 298.191, 417.364 295.640 L 416.728 291 402.864 291 L 389 291 389.009 299.750 M 276.557 306.223 C 273.158 311.075, 275.885 317, 281.518 317 C 287.651 317, 290.879 311.128, 287.443 306.223 C 286.289 304.574, 284.883 304, 282 304 C 279.117 304, 277.711 304.574, 276.557 306.223 M 328.158 394.866 C 327.521 396.992, 327 400.307, 327 402.232 L 327 405.731 333.968 406.230 C 341.751 406.787, 345.094 408.467, 348.044 413.304 C 349.717 416.047, 349.993 418.381, 349.996 429.785 L 350 443.070 386.935 442.785 L 423.871 442.500 426.942 439.557 C 428.631 437.938, 430.457 435.013, 431.001 433.057 C 431.544 431.101, 431.991 420.837, 431.994 410.250 L 432 391 380.658 391 L 329.317 391 328.158 394.866 M 228 453.500 L 228 487 282 487 L 336 487 336 453.500 L 336 420 282 420 L 228 420 228 453.500"
        stroke="none" fill="#1AAB7B" fill-rule="evenodd" />
</svg>