<svg version="1.0" xmlns="http://www.w3.org/2000/svg"
    width="31" height="31" viewBox="0 0 512.000000 512.000000"
    preserveAspectRatio="xMidYMid meet">

    <g transform="translate(0.000000,512.000000) scale(0.100000,-0.100000)"
        fill="#1AAB7B" stroke="none">
        <path
            d="M341 4344 c-19 -24 -21 -40 -21 -160 l0 -134 -106 0 c-124 0 -161
-15 -194 -81 -20 -37 -20 -65 -20 -1435 l0 -1396 21 -38 c12 -21 38 -47 59
-59 38 -21 38 -21 1026 -21 758 -1 994 -4 1011 -13 12 -7 40 -37 62 -69 46
-64 112 -115 197 -156 55 -25 69 -27 184 -27 120 0 128 1 192 32 88 41 129 75
185 148 25 33 55 65 67 72 16 9 253 12 1010 13 l988 0 39 22 c25 14 46 37 59
63 20 41 20 62 20 1434 0 1365 0 1393 -20 1430 -33 66 -70 81 -194 81 l-106 0
0 134 c0 120 -2 136 -21 160 l-20 26 -903 0 c-994 0 -958 2 -1079 -63 -60 -31
-154 -114 -195 -172 l-22 -30 -22 30 c-74 103 -213 198 -328 224 -29 7 -364
11 -947 11 l-902 0 -20 -26z m1909 -160 c80 -39 119 -73 168 -144 93 -134 191
-134 284 0 49 71 88 105 168 144 l65 31 858 3 857 2 0 -1365 0 -1365 -135 0
c-131 0 -137 -1 -160 -25 -31 -30 -32 -71 -3 -102 21 -22 26 -23 210 -23 187
0 189 0 213 25 l25 24 0 1256 0 1255 85 0 85 0 0 -1365 0 -1365 -997 -2 -998
-3 -47 -28 c-26 -15 -60 -44 -75 -65 -92 -127 -169 -172 -292 -172 -127 0
-156 18 -318 193 -74 81 -16 77 -1120 77 l-973 0 0 1365 0 1365 85 0 85 0 0
-1254 c0 -1219 1 -1254 19 -1277 l19 -24 909 -5 908 -5 60 -28 c80 -38 117
-68 177 -143 57 -74 90 -94 148 -94 58 0 91 20 148 94 60 75 97 105 177 143
l60 28 588 5 589 5 20 25 c24 30 18 77 -13 103 -20 16 -62 17 -578 17 -614 0
-637 -2 -759 -62 -64 -31 -176 -129 -215 -188 l-17 -24 -17 24 c-39 59 -151
157 -215 188 -127 62 -119 62 -1030 62 l-828 0 0 1365 0 1365 858 -2 857 -3
65 -31z" />
        <path
            d="M2683 3470 c-46 -19 -47 -23 -40 -559 4 -277 4 -501 -1 -497 -4 4
-169 242 -367 529 l-361 522 -41 3 c-34 3 -44 -1 -62 -24 -21 -27 -21 -31 -21
-655 l0 -628 23 -27 c31 -35 82 -38 109 -5 17 22 18 52 18 524 0 428 2 499 14
487 7 -8 161 -229 341 -490 179 -261 340 -487 356 -502 37 -35 78 -36 116 -4
l28 24 -3 619 c-2 385 -7 628 -13 644 -6 15 -22 31 -35 38 -29 13 -31 13 -61
1z" />
        <path
            d="M3555 3466 c-328 -64 -565 -348 -565 -677 0 -194 97 -400 247 -524
127 -105 274 -157 438 -158 170 0 290 48 406 163 114 113 177 256 195 447 9
94 -5 129 -55 144 -22 6 -109 9 -223 7 -177 -3 -189 -4 -209 -25 -27 -27 -29
-75 -4 -103 17 -18 30 -20 177 -20 l158 0 0 -36 c0 -50 -44 -176 -84 -238 -66
-104 -171 -170 -295 -185 -333 -41 -621 230 -598 564 14 198 121 357 299 444
169 83 346 76 515 -21 55 -31 81 -31 116 0 24 21 22 77 -4 103 -28 28 -150 85
-224 104 -87 22 -208 27 -290 11z" />
        <path
            d="M965 3458 c-11 -6 -25 -19 -32 -27 -17 -22 -18 -1248 -2 -1285 7 -14
25 -30 42 -36 41 -14 514 -13 556 1 53 19 69 81 31 119 -19 19 -33 20 -255 20
l-235 0 0 230 0 230 209 0 c196 0 210 1 235 21 34 27 36 77 3 107 -22 21 -31
22 -235 22 l-212 0 0 230 0 230 235 0 c222 0 236 1 255 20 25 25 26 71 1 101
l-19 24 -279 2 c-198 2 -284 0 -298 -9z" />
    </g>
</svg>