<svg version="1.0" xmlns="http://www.w3.org/2000/svg"
    width="31" height="31" viewBox="0 0 512.000000 512.000000"
    preserveAspectRatio="xMidYMid meet">

    <g transform="translate(0.000000,512.000000) scale(0.100000,-0.100000)"
        fill="#1AAB7B" stroke="none">
        <path
            d="M955 5109 c-27 -6 -78 -19 -112 -30 -69 -23 -67 -13 -24 -113 17 -38
25 -47 39 -41 102 43 248 55 362 31 42 -9 116 -36 166 -61 258 -127 401 -408
351 -690 -53 -302 -305 -525 -612 -542 -116 -6 -210 13 -323 68 -111 53 -229
168 -285 276 -137 262 -91 561 119 770 l82 82 -41 60 -41 59 -26 -19 c-62 -48
-147 -140 -190 -206 -177 -268 -173 -631 9 -890 98 -138 238 -248 389 -303
437 -160 912 83 1048 535 23 78 27 108 27 220 0 112 -4 142 -27 220 -93 307
-332 518 -650 574 -70 13 -191 12 -261 0z" />
        <path
            d="M3915 5113 c-123 -17 -292 -91 -390 -170 -129 -105 -221 -244 -271
-408 -23 -78 -27 -108 -27 -220 0 -112 4 -142 27 -220 69 -227 214 -400 421
-500 153 -75 305 -99 465 -76 169 25 311 95 437 214 206 196 293 471 237 745
-53 261 -251 494 -500 588 -118 45 -278 64 -399 47z m243 -158 c240 -48 441
-240 502 -481 58 -224 -6 -450 -175 -620 -136 -137 -301 -202 -490 -191 -239
13 -446 149 -550 360 -46 92 -74 204 -74 292 0 153 74 337 181 448 164 169
379 237 606 192z" />
        <path
            d="M3772 4567 l-52 -53 100 -99 100 -100 -100 -100 -100 -101 53 -52 53
-52 99 100 100 100 100 -100 101 -100 52 53 52 53 -95 94 c-52 52 -95 99 -95
105 0 5 43 53 95 105 l95 96 -53 52 -53 52 -99 -100 -100 -100 -100 100 -101
100 -52 -53z" />
        <path d="M730 4315 l0 -75 360 0 360 0 0 75 0 75 -360 0 -360 0 0 -75z" />
        <path
            d="M2370 3565 c-215 -46 -387 -140 -540 -294 -191 -191 -290 -435 -290
-711 0 -503 353 -920 854 -1009 87 -16 261 -13 356 5 389 73 695 362 802 755
32 119 33 375 1 495 -24 91 -75 217 -101 251 l-17 23 -61 -37 -61 -36 37 -81
c65 -142 75 -191 74 -371 0 -147 -2 -167 -28 -245 -94 -288 -298 -491 -586
-586 -79 -26 -96 -28 -250 -28 -154 0 -171 2 -250 28 -289 95 -494 301 -585
586 -37 114 -46 297 -21 421 34 166 112 314 231 434 129 130 285 215 463 251
94 20 296 14 387 -11 46 -13 190 -75 235 -102 4 -2 66 91 78 119 5 10 -116 73
-195 101 -155 56 -385 73 -533 42z" />
        <path
            d="M3185 3275 l-48 -56 44 -47 c24 -26 45 -48 46 -51 4 -7 112 84 113
94 0 6 -24 34 -54 64 l-53 53 -48 -57z" />
        <path
            d="M2235 3214 c-27 -13 -61 -33 -74 -43 l-25 -19 39 -49 c21 -26 42 -52
45 -56 4 -5 32 5 63 23 l55 31 -23 58 c-12 32 -24 63 -26 69 -3 7 -23 1 -54
-14z" />
        <path
            d="M2487 3024 c-4 -4 -7 -94 -7 -201 l0 -193 -195 0 -196 0 3 -72 3 -73
192 -3 193 -2 2 -193 3 -192 75 0 75 0 3 192 2 193 193 2 192 3 3 73 3 72
-195 0 -196 0 -2 198 -3 197 -70 3 c-39 1 -74 0 -78 -4z" />
        <path
            d="M1976 2951 l-36 -68 68 -30 68 -30 33 60 c18 33 29 62 24 66 -5 3
-30 21 -55 39 -26 17 -51 32 -56 32 -5 0 -26 -31 -46 -69z" />
        <path
            d="M1200 1309 c-459 -54 -841 -98 -847 -98 -10 -1 -13 -70 -13 -311 l0
-310 -170 0 -170 0 0 -295 0 -295 2560 0 2560 0 0 295 0 295 -170 0 -170 0 0
310 c0 171 -2 310 -3 310 -2 0 -120 14 -263 30 -1080 126 -1481 170 -1546 170
-141 0 -289 -69 -367 -171 -20 -26 -38 -48 -41 -48 -3 0 -21 22 -41 48 -84
110 -226 172 -388 170 -53 -1 -472 -46 -931 -100z m1097 -82 c66 -34 115 -83
151 -150 27 -51 27 -54 30 -269 l3 -218 -995 0 -996 0 0 85 0 85 860 0 860 0
0 75 0 75 -860 0 -860 0 0 83 0 83 778 91 c876 103 938 107 1029 60z m1531
-59 l802 -92 0 -83 0 -83 -185 0 -185 0 0 -75 0 -75 185 0 185 0 0 -85 0 -85
-995 0 -995 0 0 208 0 207 29 61 c43 91 117 156 211 185 55 16 176 6 948 -83z
m1142 -873 l0 -145 -2410 0 -2410 0 0 145 0 145 2410 0 2410 0 0 -145z" />
        <path d="M2910 835 l0 -75 600 0 600 0 0 75 0 75 -600 0 -600 0 0 -75z" />
    </g>
</svg>