<svg version="1.0" xmlns="http://www.w3.org/2000/svg"
    width="31" height="31" viewBox="0 0 512.000000 512.000000"
    preserveAspectRatio="xMidYMid meet">

    <g transform="translate(0.000000,512.000000) scale(0.100000,-0.100000)"
    fill="#1AAB7B" stroke="none">
        <path
            d="M1062 5113 c-7 -2 -19 -18 -28 -35 -13 -25 -13 -35 -3 -59 6 -17 20
-34 30 -39 11 -6 607 -10 1602 -10 1724 0 1658 2 1804 -56 189 -75 339 -217
427 -405 76 -159 70 -63 74 -1336 l2 -1143 -164 0 -165 0 -4 448 c-4 491 -4
493 -69 620 -40 79 -138 186 -211 230 -30 18 -88 45 -129 60 l-73 27 -1595 0
-1595 0 -72 -26 c-40 -15 -94 -39 -120 -55 -74 -42 -185 -160 -222 -235 -64
-131 -64 -131 -68 -622 l-4 -447 -165 0 -164 0 0 1108 c1 1194 0 1184 54 1326
55 145 169 288 295 369 84 55 98 61 206 100 71 25 93 38 103 59 15 33 3 70
-32 93 -22 15 -29 15 -88 0 -141 -37 -277 -116 -398 -231 -128 -122 -213 -267
-262 -444 l-23 -85 0 -1765 0 -1765 23 -85 c91 -335 346 -589 682 -682 l85
-23 1765 0 1765 0 85 23 c106 29 233 88 314 146 78 56 211 196 254 269 53 88
103 212 109 270 4 44 2 55 -16 71 -26 24 -74 25 -99 3 -10 -9 -26 -43 -36 -74
-74 -235 -239 -415 -463 -505 -153 -61 -76 -59 -1953 -56 -1913 3 -1747 -3
-1907 73 -180 85 -303 207 -387 386 -71 150 -70 136 -74 732 l-3 537 165 0
165 0 4 -452 c4 -498 4 -498 69 -628 47 -94 161 -205 258 -252 139 -67 29 -63
1750 -63 1282 0 1575 2 1620 14 205 50 375 214 437 421 14 47 17 124 20 507
l4 453 165 0 164 0 0 -406 c0 -240 4 -413 10 -423 5 -10 22 -24 39 -30 24 -10
34 -10 60 3 17 9 33 26 36 39 3 12 4 753 3 1647 l-4 1625 -23 80 c-96 334
-344 582 -676 677 l-80 22 -1630 2 c-896 2 -1636 0 -1643 -3z m3059 -1853
c180 -34 325 -179 359 -359 14 -73 14 -1829 0 -1902 -34 -180 -179 -325 -359
-359 -74 -14 -3048 -14 -3122 0 -180 34 -325 179 -359 359 -14 73 -14 1829 0
1902 33 176 179 324 351 358 65 13 3063 13 3130 1z" />
        <path
            d="M2170 2819 c-59 -11 -119 -55 -147 -104 -12 -22 -101 -260 -199 -528
l-177 -488 -81 79 c-124 121 -133 124 -340 120 -169 -3 -173 -4 -214 -30 -109
-73 -133 -232 -50 -332 47 -57 98 -78 203 -84 l90 -4 185 -182 c149 -147 193
-185 226 -194 90 -26 161 -8 225 57 44 45 50 58 243 591 109 300 207 569 218
598 l19 52 798 0 c494 0 819 4 852 10 75 14 128 53 162 119 68 135 -6 289
-154 320 -61 13 -1791 13 -1859 0z m1845 -153 c37 -16 52 -48 41 -92 -14 -55
0 -54 -924 -54 -796 0 -850 -1 -864 -17 -9 -10 -116 -295 -239 -633 -147 -405
-231 -623 -246 -638 -47 -47 -62 -37 -270 171 l-194 192 -110 5 c-101 5 -113
7 -130 29 -25 30 -24 72 1 99 19 21 30 22 158 22 l137 0 125 -125 c68 -68 136
-129 150 -134 18 -6 36 -5 56 4 29 12 40 38 234 571 111 308 205 565 208 573
15 39 32 40 950 41 745 0 888 -2 917 -14z" />
        <path
            d="M2721 2275 c-87 -27 -151 -116 -151 -210 0 -84 21 -120 132 -232
l102 -102 -96 -99 c-114 -118 -138 -159 -138 -239 1 -130 92 -223 220 -223 79
0 116 22 230 135 l105 105 100 -101 c111 -113 155 -138 233 -139 128 0 225 95
225 220 0 82 -22 120 -134 236 l-103 105 101 102 c132 133 153 178 132 276
-27 128 -155 204 -282 167 -48 -14 -70 -30 -164 -120 l-108 -104 -107 104
c-90 86 -115 105 -159 118 -63 19 -80 19 -138 1z m223 -264 c72 -72 142 -134
156 -139 15 -6 35 -6 50 0 14 5 84 67 156 139 84 83 138 129 152 129 35 0 75
-42 75 -79 0 -28 -17 -50 -130 -164 -72 -73 -134 -142 -138 -154 -10 -34 8
-59 143 -195 108 -109 125 -131 125 -159 0 -39 -32 -69 -75 -69 -26 0 -53 22
-168 135 -110 108 -143 135 -165 135 -22 0 -55 -27 -165 -135 -117 -116 -142
-135 -169 -135 -41 0 -71 31 -71 73 0 28 16 48 121 152 118 118 149 157 149
191 0 9 -61 79 -135 154 -122 124 -135 141 -135 173 0 39 36 77 73 77 13 0 70
-49 151 -129z" />
        <path
            d="M1361 4621 c-27 -27 -34 -74 -29 -188 4 -85 7 -98 27 -114 30 -25 76
-24 101 1 18 18 20 33 20 150 0 117 -2 132 -20 150 -25 25 -74 26 -99 1z" />
        <path
            d="M3660 4620 c-18 -18 -20 -33 -20 -150 0 -117 2 -132 20 -150 25 -25
71 -26 101 -1 20 16 23 29 27 114 5 114 -2 161 -29 188 -25 25 -74 24 -99 -1z" />
        <path
            d="M2440 4540 c-117 -11 -187 -39 -243 -98 -58 -63 -72 -106 -72 -222 1
-143 37 -238 129 -337 165 -178 412 -189 587 -26 105 98 151 207 153 358 1
122 -12 163 -71 227 -57 61 -124 86 -257 98 -112 10 -107 10 -226 0z m275
-156 c98 -11 141 -73 132 -186 -12 -139 -98 -260 -210 -293 -64 -19 -90 -19
-154 0 -114 34 -202 159 -210 300 -5 83 14 129 66 159 51 29 223 39 376 20z" />
    </g>
</svg>