<svg version="1.0" xmlns="http://www.w3.org/2000/svg"
    width="31" height="31" viewBox="0 0 512.000000 512.000000"
    preserveAspectRatio="xMidYMid meet">

    <g transform="translate(0.000000,512.000000) scale(0.100000,-0.100000)"
        fill="#1AAB7B" stroke="3">
        <path
            d="M410 4751 c-84 -26 -159 -90 -201 -171 l-24 -45 -3 -1474 c-3 -1619
-6 -1532 57 -1618 17 -23 50 -55 75 -72 88 -61 91 -61 848 -61 378 0 688 -1
688 -3 0 -2 -43 -98 -95 -213 l-94 -209 -155 -3 c-209 -3 -196 14 -196 -264 0
-208 0 -209 25 -233 l24 -25 1201 0 1201 0 24 25 c25 24 25 24 25 238 0 274
14 255 -198 259 l-153 3 -94 210 -94 210 712 5 c581 4 718 8 747 19 94 38 157
101 190 189 20 53 20 76 18 1535 l-3 1482 -27 50 c-32 60 -87 114 -148 146
l-45 24 -2140 2 c-1177 1 -2151 -2 -2165 -6z m4286 -162 c26 -12 53 -36 66
-57 l23 -37 3 -1062 2 -1063 -2230 0 -2230 0 2 1063 3 1062 23 37 c13 20 41
45 65 57 l42 21 2094 0 2095 0 42 -21z m92 -2679 c2 -300 2 -306 -20 -350 -13
-25 -38 -55 -57 -67 l-34 -23 -2114 0 c-2343 0 -2145 -6 -2200 67 l-28 36 -3
310 c-2 170 -1 316 2 323 5 12 358 14 2228 12 l2223 -3 3 -305z m-1593 -812
l93 -208 -728 0 -728 0 75 168 c41 92 84 186 94 210 l18 42 542 -2 541 -3 93
-207z m463 -475 l-3 -108 -1095 0 -1095 0 -3 108 -3 107 1101 0 1101 0 -3
-107z" />
        <path
            d="M472 4487 c-22 -23 -22 -29 -22 -335 0 -299 1 -313 20 -332 12 -12
33 -20 55 -20 22 0 43 8 55 20 19 19 20 33 20 280 l0 260 298 0 299 0 21 23
c29 31 29 77 -1 105 -23 22 -28 22 -373 22 l-351 0 -21 -23z" />
        <path
            d="M2332 4150 c-119 -31 -206 -83 -303 -180 -147 -145 -207 -302 -196
-509 10 -196 73 -337 217 -481 97 -98 197 -156 327 -192 72 -20 108 -22 451
-26 206 -2 385 -1 398 2 60 15 83 81 45 127 l-19 24 -409 6 c-393 5 -410 6
-470 28 -192 70 -337 238 -379 441 -55 261 97 518 356 606 80 27 243 25 324
-5 81 -29 143 -70 208 -139 104 -109 137 -202 145 -403 3 -81 3 -158 -1 -172
-9 -36 -33 -57 -65 -57 -50 0 -58 22 -64 170 -6 166 -26 225 -98 305 -116 126
-288 154 -442 72 -69 -36 -119 -90 -156 -167 -22 -47 -26 -68 -26 -145 0 -82
3 -97 32 -156 39 -79 102 -140 181 -177 48 -23 71 -27 142 -27 91 0 149 17
206 60 l30 23 28 -34 c84 -105 247 -104 335 3 47 57 54 96 49 298 -4 168 -6
186 -35 266 -75 217 -254 384 -469 439 -101 26 -242 26 -342 0z m317 -524 c50
-35 91 -112 91 -173 0 -167 -187 -266 -324 -172 -41 28 -74 75 -88 125 -23 85
31 196 116 236 61 28 151 21 205 -16z" />
        <path
            d="M493 3680 c-35 -14 -43 -42 -43 -152 0 -91 3 -107 20 -126 28 -30 80
-29 108 1 20 21 22 34 22 124 0 118 -3 129 -41 148 -32 17 -35 17 -66 5z" />
        <path
            d="M2487 2036 c-102 -38 -152 -115 -145 -225 3 -55 9 -76 33 -110 44
-64 105 -96 185 -96 80 0 142 32 186 97 26 39 29 51 29 124 0 71 -3 85 -27
122 -53 80 -173 121 -261 88z m126 -168 c21 -25 22 -57 1 -86 -13 -19 -24 -22
-57 -20 -52 4 -77 39 -62 85 19 53 81 64 118 21z" />
    </g>
</svg>