<svg xmlns="http://www.w3.org/2000/svg" width="31" height="31" viewBox="0 0 512 512" version="1.1">
    <path d="" stroke="none" fill="#1AAB7B" fill-rule="evenodd" />
    <path
        d="M 250.500 1.867 C 232.504 7.038, 217.885 21.552, 211.246 40.840 C 209.892 44.774, 209.582 52.514, 209.258 90.500 L 208.874 135.500 131.735 135.238 C 63.472 135.006, 53.958 135.160, 49.048 136.576 C 40.722 138.978, 34.601 142.689, 28.618 148.962 C 18.813 159.241, 15.049 170.239, 15.017 188.694 C 15.002 197.991, 15.209 199.131, 17.370 201.644 C 19.151 203.714, 20.648 204.400, 23.385 204.400 C 29.711 204.400, 30.432 202.776, 31.009 187.218 C 31.470 174.792, 31.782 172.962, 34.315 167.786 C 37.743 160.782, 44.406 154.720, 51.329 152.304 C 56.134 150.628, 61.776 150.500, 131 150.500 L 205.500 150.500 211 153.090 C 218.968 156.842, 222.514 160.268, 226.218 167.789 L 229.500 174.455 229.800 244.958 C 229.966 283.736, 229.845 316.483, 229.531 317.731 C 228.994 319.874, 228.474 320, 220.191 320 C 209.115 320, 200.926 322.091, 194.322 326.605 C 188.617 330.505, 182.786 338.309, 180.953 344.500 C 179.903 348.045, 177.818 350, 162.634 361.681 L 145.500 374.861 145 363.462 C 144.598 354.305, 144.149 351.712, 142.716 350.281 C 141.075 348.643, 137.413 348.460, 97.216 348 L 53.500 347.500 48.585 345.081 C 42.528 342.100, 36.962 336.490, 33.854 330.236 C 31.516 325.533, 31.497 325.197, 31 281.784 C 30.441 232.877, 30.719 234.600, 23.385 234.600 C 20.648 234.600, 19.151 235.286, 17.370 237.356 L 15 240.112 15.008 279.306 C 15.012 301.897, 15.460 321.245, 16.067 324.981 C 19.100 343.679, 34.482 359.560, 52.886 362.995 C 55.851 363.548, 74.176 364, 93.636 364 L 129 364 129 378.066 C 129 392.181, 129.595 395.171, 132.913 397.718 C 133.786 398.388, 135.698 398.951, 137.163 398.968 C 139.801 399, 143.373 396.496, 168.882 376.735 L 178.906 368.969 179.203 414.758 L 179.500 460.547 182.781 467.208 C 186.789 475.348, 193.927 482.081, 201.586 484.946 C 206.615 486.828, 209.293 487, 233.538 487 L 260 487 260 496.865 C 260 505.331, 260.294 507.104, 262.073 509.365 C 263.606 511.314, 265.055 512, 267.641 512 C 270.586 512, 273.691 510.029, 287.319 499.511 L 303.500 487.022 311.212 487.011 C 321.347 486.996, 328.328 484.381, 335.341 477.971 C 343.317 470.681, 346.229 463.518, 346.805 449.766 C 347.327 437.324, 346.307 433.651, 341.906 432.117 C 338.048 430.772, 333.617 432.351, 332.138 435.597 C 331.512 436.970, 330.990 442.235, 330.978 447.297 C 330.935 465.432, 324.012 471.980, 304.869 471.994 L 297.238 472 286.869 479.917 L 276.500 487.835 275.886 481.736 C 274.875 471.710, 275.884 472.001, 242.139 471.994 C 224.553 471.991, 211.956 471.567, 209.500 470.896 C 203.904 469.368, 199.109 465.452, 196.913 460.616 C 195.165 456.766, 195.043 453.119, 195.022 404.218 C 195.003 359.256, 195.217 351.417, 196.548 348.232 C 198.612 343.290, 201.659 340.124, 206.500 337.890 C 210.225 336.171, 214.091 336.042, 262.782 336.022 C 319.120 335.998, 319.156 336.001, 324.834 341.298 C 330.474 346.559, 331 349.167, 331 371.895 C 331 383.431, 331.412 393.954, 331.916 395.279 C 333.254 398.798, 338.156 400.592, 342.038 398.984 C 343.709 398.292, 345.509 396.917, 346.038 395.929 C 346.568 394.939, 347 384.525, 347 372.747 C 347 348.546, 346.179 343.919, 340.360 335.322 C 338.433 332.474, 334.526 328.552, 331.678 326.605 C 322.726 320.486, 318.909 320, 279.790 320 L 245 320 245 301.182 L 245 282.364 251.750 284.124 C 257.694 285.675, 263.894 285.892, 303.692 285.942 L 348.883 286 349.192 306.090 C 349.495 325.823, 349.542 326.214, 351.861 328.090 C 357.059 332.295, 358.476 331.532, 389.213 307.991 L 417.926 286 432.213 285.985 C 441.450 285.976, 448.779 285.433, 452.947 284.451 C 472.502 279.842, 488.040 265.200, 494.282 245.500 L 496.500 238.500 496.500 143 C 496.500 36.913, 496.901 43.674, 489.775 29.552 C 485.890 21.853, 474.519 10.494, 466.500 6.304 C 456.601 1.131, 450.280 -0, 431.261 -0 C 415.443 -0, 414.186 0.137, 412.455 2.050 C 410.060 4.696, 410.060 10.304, 412.455 12.950 C 414.137 14.809, 415.483 15.001, 426.905 15.008 C 448.669 15.021, 457.897 17.606, 467.730 26.447 C 473.374 31.522, 477.312 38.261, 479.467 46.535 C 481.779 55.411, 481.770 230.602, 479.458 239.540 C 476.285 251.799, 468.860 260.671, 457 266.374 C 450.578 269.463, 450.272 269.506, 431.419 270 L 412.338 270.500 408.419 273.466 C 406.264 275.098, 395.725 283.138, 385 291.334 L 365.500 306.236 365.250 291.368 C 364.998 276.463, 364.258 272.874, 361.109 271.303 C 360.224 270.861, 336.100 270.275, 307.500 270 L 255.500 269.500 250.250 267.127 L 245 264.754 245 218.845 C 245 175.026, 244.905 172.654, 242.922 166.718 C 240.217 158.622, 235.963 152.051, 229.894 146.595 L 225 142.194 225.012 96.847 C 225.021 61.633, 225.330 50.349, 226.395 46.350 C 230.676 30.273, 243.570 18.644, 260 16.044 C 263.863 15.432, 288.446 15.012, 320.595 15.008 C 373.853 15, 374.719 14.968, 376.545 12.950 C 377.586 11.800, 378.400 9.409, 378.400 7.500 C 378.400 5.591, 377.586 3.200, 376.545 2.050 C 374.713 0.026, 373.944 0.001, 315.595 0.071 C 262.775 0.135, 255.863 0.326, 250.500 1.867 M 360.411 56.891 C 356.204 59.457, 353.140 63.568, 352.617 67.351 C 349.824 87.569, 348.360 90.924, 336.336 104.677 C 319.883 123.495, 321.234 122.277, 318.748 120.536 C 316.935 119.266, 312.685 119, 294.201 119 L 271.846 119 268.923 121.923 L 266 124.846 266 172.367 L 266 219.888 268.413 222.694 L 270.827 225.500 294.308 225.500 C 315.099 225.500, 318.008 225.303, 319.688 223.783 C 321.488 222.153, 321.901 222.192, 327.728 224.546 C 331.106 225.911, 336.211 227.471, 339.072 228.014 C 341.956 228.561, 361.919 228.990, 383.886 228.978 C 420.040 228.958, 423.850 228.797, 427.509 227.135 C 432.550 224.845, 437.575 219.193, 438.940 214.277 C 440.389 209.060, 440.351 137.824, 438.896 132.500 C 437.511 127.429, 433.808 122.496, 429.698 120.249 C 427.046 118.798, 422.974 118.415, 405.831 118 C 394.463 117.725, 384.906 117.243, 384.593 116.929 C 384.281 116.615, 385.015 113.690, 386.224 110.429 C 389.483 101.639, 389.463 82.289, 386.186 72.803 C 383.364 64.635, 380.522 60.268, 376.078 57.274 C 371.815 54.401, 364.777 54.229, 360.411 56.891 M 366.807 80.523 C 363.825 96.320, 360.944 100.843, 335.750 129.287 L 322 144.811 322 173.495 C 322 206.529, 321.054 203.448, 333 209.310 L 339.500 212.500 380.346 212.792 C 410.341 213.007, 421.566 212.775, 422.596 211.920 C 423.755 210.958, 424 204.252, 424 173.449 C 424 140.868, 423.801 135.944, 422.429 134.571 C 421.080 133.223, 417.137 133, 394.603 133 C 368.453 133, 368.340 132.991, 366.174 130.686 C 363.077 127.388, 363.440 124.285, 368.216 113.245 C 372.348 103.692, 372.432 103.273, 372.466 92 C 372.494 82.537, 372.143 79.723, 370.484 76.113 L 368.468 71.726 366.807 80.523 M 282 172.500 L 282 210 294.500 210 L 307 210 307 172.500 L 307 135 294.500 135 L 282 135 282 172.500 M 118.364 194.170 C 115.275 195.665, 114.481 198.039, 111.960 213.303 L 109.697 227 93.303 227 C 77.230 227, 76.861 227.048, 74.455 229.455 C 71.347 232.562, 71.332 236.111, 74.411 239.694 L 76.822 242.500 91.974 242.823 L 107.127 243.146 106.598 245.823 C 106.307 247.295, 105.789 250.300, 105.447 252.500 C 104.197 260.543, 105.208 260, 91.480 260 C 84.404 260, 78.031 260.484, 76.615 261.130 C 73.340 262.622, 71.385 267.350, 72.606 270.822 C 74.080 275.013, 77.318 275.969, 90.092 275.985 L 101.684 276 99.435 289.250 C 96.921 304.062, 97.275 306.407, 102.396 308.861 C 104.884 310.054, 105.717 310.029, 108.551 308.677 C 112.461 306.813, 112.562 306.532, 115.365 289.700 L 117.564 276.500 126.362 276.210 C 134.419 275.944, 135.116 276.071, 134.632 277.710 C 133.209 282.528, 130.823 302.160, 131.387 304.407 C 132.175 307.544, 137.075 310.270, 140.418 309.431 C 144.855 308.318, 146.056 305.720, 148.086 292.844 C 149.156 286.055, 150.258 279.488, 150.535 278.250 C 151.031 276.032, 151.264 276, 166.963 276 C 182.221 276, 183.003 275.902, 185.611 273.658 C 187.556 271.985, 188.333 270.370, 188.333 268 C 188.333 265.630, 187.556 264.015, 185.611 262.342 C 183.028 260.120, 182.149 260, 168.444 260 C 152.024 260, 153.323 260.983, 155.147 249.943 L 156.293 243 168.897 242.985 C 182.647 242.969, 185.688 242.136, 187.760 237.813 C 188.687 235.881, 188.742 234.453, 187.971 232.424 C 186.137 227.599, 184.484 227.066, 171.250 227.032 C 164.512 227.014, 159.003 226.887, 159.007 226.750 C 159.010 226.613, 159.907 221.325, 161 215 C 163.566 200.146, 163.526 198.435, 160.545 195.455 C 157.487 192.396, 153.890 192.323, 150.524 195.250 C 148.249 197.228, 147.639 199.253, 145.478 212 C 144.126 219.975, 143.015 226.613, 143.010 226.750 C 143.004 226.887, 139.175 227, 134.500 227 C 128.809 227, 126 226.624, 126 225.861 C 126 225.235, 126.923 219.310, 128.052 212.694 C 130.330 199.346, 129.874 196.175, 125.385 194.130 C 122.436 192.786, 121.207 192.793, 118.364 194.170 M 122.614 245.750 C 122.314 247.262, 121.789 250.300, 121.447 252.500 C 121.105 254.700, 120.609 257.288, 120.345 258.250 C 119.914 259.822, 120.774 260, 128.797 260 L 137.728 260 138.311 255.750 C 138.632 253.412, 139.201 249.588, 139.575 247.250 L 140.256 243 131.707 243 C 123.181 243, 123.158 243.007, 122.614 245.750 M 238.173 369.845 C 231.646 372.173, 225.552 377.831, 222.390 384.500 C 220.537 388.408, 220.017 391.185, 220.010 397.212 C 219.987 414.880, 229.117 426.673, 253.500 440.472 C 257.900 442.962, 262.194 445, 263.042 445 C 265.551 445, 281.967 435.198, 289.209 429.375 C 300.847 420.017, 306.111 410.046, 306.111 397.363 C 306.111 388.660, 303.723 382.370, 298.308 376.812 C 290.562 368.861, 277.235 366.287, 267.703 370.902 L 263 373.178 258.545 371.022 C 252.192 367.947, 244.710 367.515, 238.173 369.845 M 242.388 384.980 C 236.556 387.337, 234.031 395.156, 236.434 403.423 C 238.371 410.085, 243.230 415.240, 254.499 422.585 L 262.886 428.052 268.193 424.834 C 286.300 413.854, 292.986 404.090, 289.998 392.991 C 287.385 383.287, 275.047 381.170, 270.089 389.574 C 266.627 395.441, 259.929 395.439, 255.908 389.571 C 252.390 384.437, 247.686 382.839, 242.388 384.980"
        stroke="none" fill="#1AAB7B" fill-rule="evenodd" />
</svg>